<svg width="780" height="600" xmlns="http://www.w3.org/2000/svg">

 <g>
  <title>Layer 1</title>
  <text transform="matrix(3.08567 0 0 7.88947 -286.54 -2574.3)" stroke="#000" xml:space="preserve" text-anchor="start" font-family="Noto Sans JP" font-size="24" id="svg_3" y="393" x="135" fill="#fff7f7">COURSE STORE</text>
  <path stroke="#000" id="svg_4" d="m571.99032,272.95729c6.13896,-11.13124 10.90658,-22.98993 14.03373,-35.40288c12.21382,-42.27331 8.53558,-79.14265 8.53558,-79.14265l-4.1909,24.29473c0,0 -6.01079,-44.98683 -13.38009,-61.81071c-11.29106,-25.7612 -16.31501,-25.5649 -16.32782,-25.51871c6.94637,15.92322 6.33119,25.04529 6.19021,26.41937c-0.12816,-0.18475 -0.2435,-0.3695 -0.34603,-0.5427c-1.67892,-3.74121 -10.2145,-21.00387 -28.51602,-33.23206c-32.06609,-28.64793 -76.16659,-46.34938 -124.89373,-46.36092c-51.98245,0 -98.74871,20.14939 -131.21211,52.24985c-4.10118,-5.34623 -7.4462,-11.8356 -7.75379,-19.00624c0,0 -0.02563,0.02309 -0.0769,0.05773c0,-0.12702 -0.03845,-0.24249 -0.03845,-0.35795c0,0 -20.63406,14.39902 -18.40404,53.25443c-3.83204,6.62794 -7.17707,13.533 -9.95818,20.68055c-4.80607,9.43384 -9.61214,23.14005 -13.57234,43.2548c0,0 1.70455,-4.87281 5.11366,-11.40837c-0.82024,5.56562 -1.32007,11.21207 -1.48668,16.93935c-1.15345,9.75715 -1.51231,21.53502 -0.49983,35.65691c0,0 0.41012,-4.68805 1.743,-11.78941c10.6887,79.14265 85.44551,140.46839 176.13285,140.46839l0,0c23.8381,0 46.59965,-4.27236 67.36187,-11.96262c47.17638,-15.51907 75.09003,-45.25241 91.54601,-76.74089zm-158.89507,-220.69645c31.34839,0 60.62056,7.85191 85.61212,21.47729c-29.144,-6.09678 -43.99796,-3.01375 -43.8698,-2.86364c0.16661,0.1732 43.36997,6.80114 51.02123,16.29271c0,0 -18.33996,0 -36.60302,4.73424c-0.83305,0.2194 67.18244,7.65562 81.08801,68.88898c0,0 -7.45902,-14.00642 -16.67386,-16.39664c6.06205,16.61603 4.49848,48.1507 -1.28162,63.83143c-0.74334,2.00916 -1.51231,-8.71793 -12.86745,-13.33671c3.6398,23.5211 -0.23069,60.82923 -18.35278,71.10599c-1.39696,0.80829 11.36796,-36.82315 2.57605,-22.28557c-52.45664,72.46853 -114.82021,29.31765 -140.13217,13.94869c20.31365,4.48021 41.87048,1.24707 54.36626,-6.45473c12.58549,-7.75954 20.04451,-13.41753 26.74738,-12.08964c6.69005,1.35099 11.15008,-4.6996 5.94671,-10.06892c-5.19056,-5.38087 -17.84013,-12.75936 -34.92411,-8.74102c-12.04721,2.85209 -27.0037,14.86089 -49.8037,2.69043c-19.45497,-10.38069 -19.31399,-18.82149 -19.31399,-24.19082c0,-4.22617 3.29376,-10.16129 9.40708,-11.87024c7.43339,0.71591 13.3801,2.47104 19.69848,5.38087c0.06408,-1.55884 0.0769,-3.63728 -0.01282,-5.99286c0.49983,-0.88911 0.19225,-3.59109 -0.60236,-6.88197c-0.46138,-3.31397 -1.24317,-6.72031 -2.43507,-9.82643c0.12816,-0.0231 0.21787,-0.08083 0.26914,-0.24249c0.97403,-3.97214 27.51635,-17.82846 29.46441,-19.15635c1.96087,-1.31635 7.0489,-4.36474 6.48499,-13.66002c-0.19224,-3.05994 -0.74334,-3.3948 -28.60573,-3.30242c-11.75244,0.03464 -18.26306,-10.32296 -20.36492,-14.37593c2.8452,-14.21427 11.06037,-24.36402 24.59426,-31.2229c0.25633,-0.12701 0.19225,-0.24248 -0.10253,-0.31176c2.80675,-1.46646 -32.34805,-0.06928 -48.18886,18.52127c-4.24215,0.54271 -10.07352,-0.55425 -16.59696,-0.55425c-8.17672,0 -14.59763,0.80828 -20.54434,2.15928c-0.64081,0.15011 -1.56358,0.12701 -2.66577,-0.01155c-1.6661,-1.10851 -4.15244,-2.95602 -6.84384,-5.35778c2.0634,-2.07844 4.15244,-4.1107 6.34401,-6.07368c30.00269,-27.04291 71.38616,-43.75132 117.16557,-43.76286z" fill="#f2eaea"/>
  <path id="svg_5" d="m61,238" opacity="NaN" stroke="#000" fill="#7f0b0b"/>
 </g>
</svg>